<svg width="175" height="40" viewBox="0 0 175 40" fill="none" xmlns="http://www.w3.org/2000/svg">
<path d="M119.621 0.1651H117.104C110.639 0.1651 106.295 4.35151 106.295 10.5827V39.2644C106.295 39.3267 106.307 39.3885 106.331 39.4462C106.355 39.5038 106.39 39.5562 106.435 39.6003C106.479 39.6445 106.531 39.6795 106.589 39.7034C106.647 39.7273 106.709 39.7396 106.772 39.7396H110.765C110.892 39.7396 111.013 39.6895 111.103 39.6004C111.192 39.5113 111.242 39.3904 111.242 39.2644V23.3163C111.242 23.1873 111.294 23.0636 111.385 22.9724C111.477 22.8812 111.601 22.8299 111.731 22.8299H124.995C125.124 22.8299 125.249 22.8812 125.34 22.9724C125.432 23.0636 125.483 23.1873 125.483 23.3163V39.2644C125.483 39.3904 125.534 39.5113 125.623 39.6004C125.713 39.6895 125.834 39.7396 125.961 39.7396H129.954C130.017 39.7396 130.079 39.7273 130.137 39.7034C130.194 39.6795 130.247 39.6445 130.291 39.6003C130.335 39.5562 130.371 39.5038 130.394 39.4462C130.418 39.3885 130.431 39.3267 130.431 39.2644V10.5827C130.431 4.35151 126.087 0.1651 119.621 0.1651ZM125.415 10.5827V17.7995C125.415 17.9254 125.365 18.0462 125.276 18.1353C125.186 18.2244 125.065 18.2745 124.939 18.2747H111.787C111.724 18.2747 111.662 18.2624 111.605 18.2385C111.547 18.2147 111.494 18.1796 111.45 18.1355C111.406 18.0914 111.371 18.039 111.347 17.9813C111.323 17.9237 111.311 17.8619 111.311 17.7995V10.5827C111.311 8.83632 111.821 7.47151 112.827 6.52591C113.833 5.58031 115.301 5.09311 117.172 5.09311H119.553C121.425 5.09311 122.887 5.57311 123.899 6.52591C124.911 7.47871 125.415 8.83632 125.415 10.5827Z" fill="white"/>
<path d="M160.281 0.159763C158.818 0.159763 158.433 0.826164 157.796 1.93097C157.699 2.10057 157.593 2.28457 157.475 2.48537L149.096 16.7702C149.084 16.7918 149.065 16.8096 149.043 16.822C149.022 16.8345 148.997 16.841 148.972 16.841C148.947 16.841 148.922 16.8345 148.9 16.822C148.878 16.8096 148.86 16.7918 148.847 16.7702L140.473 2.47977C140.354 2.28377 140.249 2.10137 140.152 1.93257C139.509 0.812564 139.119 0.144563 137.618 0.158163C136.961 0.167845 136.334 0.435144 135.873 0.902094C135.413 1.36905 135.155 1.998 135.157 2.65257V39.2526C135.157 39.3817 135.209 39.5055 135.3 39.5969C135.392 39.6882 135.516 39.7396 135.646 39.7398H139.62C139.75 39.7396 139.874 39.6882 139.965 39.5969C140.057 39.5055 140.108 39.3817 140.108 39.2526V11.8638L146.34 22.3126L146.37 22.3622C146.914 23.2638 147.531 24.2822 148.972 24.2822C150.43 24.2822 151.07 23.203 151.586 22.3366L157.835 11.8614V39.2526C157.835 39.3817 157.886 39.5055 157.978 39.5969C158.07 39.6882 158.194 39.7396 158.324 39.7398H162.294C162.424 39.7398 162.549 39.6885 162.64 39.5971C162.732 39.5058 162.784 39.3818 162.784 39.2526V2.65417C162.787 0.952564 161.988 0.159763 160.281 0.159763Z" fill="white"/>
<path d="M51.9055 39.0397L42.6887 22.3349C44.8155 21.9085 46.6322 20.8421 48.0898 19.1653L47.7876 19.4453C47.8841 19.3453 47.9797 19.2429 48.0761 19.1365C50.9413 15.9685 50.6577 11.4261 50.632 11.0837C50.6264 4.66766 46.4322 0.358856 40.1923 0.358856H28.0355C27.9059 0.358856 27.7816 0.410102 27.69 0.50132C27.5984 0.592538 27.5469 0.716256 27.5469 0.845257L27.502 39.2581C27.502 39.3872 27.5534 39.511 27.645 39.6023C27.7366 39.6937 27.8608 39.7451 27.9905 39.7453H31.9734C32.1 39.7453 32.2213 39.6953 32.3109 39.6061C32.4004 39.517 32.4506 39.3962 32.4506 39.2701V22.9685C32.4509 22.8426 32.5012 22.7219 32.5907 22.633C32.6802 22.5441 32.8015 22.4941 32.9279 22.4941H36.865C36.9525 22.4941 37.0384 22.5174 37.1138 22.5618C37.1891 22.6061 37.2511 22.6698 37.2933 22.7461L46.5222 39.4981C46.5636 39.5726 46.6243 39.6347 46.6978 39.6782C46.7714 39.7216 46.8552 39.7448 46.9408 39.7453H51.4917C51.5745 39.7447 51.6557 39.7227 51.7273 39.6814C51.7989 39.6401 51.8585 39.5809 51.9003 39.5098C51.942 39.4386 51.9644 39.3578 51.9654 39.2754C51.9663 39.193 51.9457 39.1118 51.9055 39.0397ZM32.9625 17.5861C32.8998 17.5861 32.8378 17.5738 32.7799 17.5499C32.7221 17.526 32.6695 17.491 32.6253 17.4469C32.581 17.4027 32.5459 17.3503 32.522 17.2927C32.4981 17.235 32.4859 17.1733 32.486 17.1109V5.75087C32.4859 5.6885 32.4981 5.62672 32.522 5.56908C32.5459 5.51143 32.581 5.45903 32.6253 5.4149C32.6695 5.37076 32.7221 5.33574 32.7799 5.31185C32.8378 5.28796 32.8998 5.27567 32.9625 5.27567H40.1939C41.9439 5.27567 43.3114 5.78287 44.2595 6.78207C45.2076 7.78127 45.8617 9.23967 45.8617 11.1021V11.1381C45.8617 11.2549 45.9846 14.0789 44.3286 15.9381C43.3243 17.0653 42.1231 17.5901 40.5522 17.5901L32.9625 17.5861Z" fill="white"/>
<path d="M20.4013 19.4501C20.4978 19.3501 20.5934 19.2477 20.6898 19.1413C23.555 15.9733 23.2714 11.4309 23.2457 11.0877C23.2401 4.67246 19.0426 0.362854 12.806 0.362854H0.637917C0.511337 0.362854 0.38994 0.41292 0.300434 0.502037C0.210928 0.591155 0.160645 0.712024 0.160645 0.838055V39.2653C0.160645 39.3914 0.210928 39.5122 0.300434 39.6013C0.38994 39.6905 0.511337 39.7405 0.637917 39.7405H14.2916C20.5307 39.7405 24.7563 35.4317 24.7627 29.0205C24.7627 28.6685 24.9186 24.2485 22.1755 20.9653C21.6845 20.4205 20.8818 19.7925 20.4013 19.4501ZM16.9463 15.9381C15.9412 17.0653 14.7408 17.5909 13.1699 17.5909H5.57616C5.45028 17.5909 5.32948 17.5414 5.24009 17.4531C5.1507 17.3649 5.09995 17.245 5.09889 17.1197V5.75966C5.09825 5.69686 5.11013 5.63455 5.13383 5.57634C5.15753 5.51813 5.19258 5.46518 5.23696 5.42054C5.28135 5.3759 5.33418 5.34047 5.3924 5.31629C5.45062 5.29211 5.51308 5.27966 5.57616 5.27966H12.8076C14.5576 5.27966 15.9251 5.78606 16.8724 6.78607C17.8197 7.78607 18.4754 9.24287 18.4754 11.1061V11.1413C18.4802 11.2541 18.5983 14.0797 16.9423 15.9381H16.9463ZM5.09889 22.9877C5.09889 22.9253 5.11124 22.8636 5.13524 22.806C5.15923 22.7484 5.1944 22.696 5.23873 22.652C5.28306 22.6079 5.33568 22.573 5.39358 22.5492C5.45148 22.5254 5.51353 22.5132 5.57616 22.5133H14.65C16.2393 22.5133 17.4734 23.0517 18.4264 24.1605C19.7867 25.7485 19.7923 28.9693 19.7923 29.0029C19.7923 30.8621 19.3102 32.3141 18.3565 33.3189C17.4027 34.3237 16.0416 34.8245 14.2916 34.8245H5.57616C5.44958 34.8245 5.32819 34.7745 5.23868 34.6853C5.14917 34.5962 5.09889 34.4753 5.09889 34.3493V22.9877Z" fill="white"/>
<path d="M59.4429 5.30383H76.2294C76.356 5.30383 76.4774 5.25377 76.5669 5.16465C76.6564 5.07553 76.7067 4.95466 76.7067 4.82863V0.839825C76.7067 0.713794 76.6564 0.592925 76.5669 0.503807C76.4774 0.41469 76.356 0.364624 76.2294 0.364624H59.639C58.1453 0.364836 56.7129 0.955772 55.6568 2.00746C54.6006 3.05914 54.0073 4.48544 54.0073 5.97263V34.1327C54.0073 35.6199 54.6006 37.0462 55.6568 38.0979C56.7129 39.1495 58.1453 39.7405 59.639 39.7407H76.2294C76.356 39.7407 76.4774 39.6906 76.5669 39.6015C76.6564 39.5124 76.7067 39.3915 76.7067 39.2655V35.2799C76.7067 35.2175 76.6944 35.1558 76.6704 35.0982C76.6464 35.0405 76.6112 34.9882 76.5669 34.9442C76.5225 34.9001 76.4699 34.8652 76.412 34.8414C76.3541 34.8176 76.2921 34.8054 76.2294 34.8055H59.4582C59.3939 34.8055 59.3303 34.7929 59.2709 34.7684C59.2116 34.7439 59.1576 34.708 59.1122 34.6628C59.0668 34.6175 59.0307 34.5638 59.0061 34.5047C58.9815 34.4456 58.9689 34.3823 58.9689 34.3183V22.8503C58.9691 22.7212 59.0207 22.5975 59.1125 22.5063C59.2042 22.4151 59.3286 22.3639 59.4582 22.3639H72.2883C72.4149 22.3639 72.5363 22.3138 72.6258 22.2247C72.7153 22.1356 72.7656 22.0147 72.7656 21.8887V17.9095C72.7656 17.7834 72.7153 17.6626 72.6258 17.5734C72.5363 17.4843 72.4149 17.4343 72.2883 17.4343H59.4429C59.3164 17.4343 59.195 17.3842 59.1055 17.2951C59.0159 17.206 58.9657 17.0851 58.9657 16.9591V5.77903C58.9657 5.653 59.0159 5.53213 59.1055 5.44302C59.195 5.3539 59.3164 5.30383 59.4429 5.30383Z" fill="white"/>
<path d="M85.3042 5.30383H102.091C102.153 5.30383 102.215 5.29154 102.273 5.26765C102.331 5.24375 102.384 5.20874 102.428 5.1646C102.472 5.12046 102.507 5.06807 102.531 5.01042C102.555 4.95277 102.567 4.891 102.567 4.82863V0.839825C102.567 0.777458 102.555 0.715683 102.531 0.658034C102.507 0.600385 102.472 0.547993 102.428 0.503856C102.384 0.459719 102.331 0.424703 102.273 0.400812C102.215 0.376921 102.153 0.364624 102.091 0.364624H85.5002C84.7605 0.364519 84.028 0.509497 83.3445 0.791279C82.6611 1.07306 82.04 1.48613 81.5169 2.00689C80.9938 2.52765 80.5789 3.14591 80.2958 3.82636C80.0127 4.5068 79.8669 5.23611 79.8669 5.97263V34.1327C79.8669 35.62 80.4604 37.0464 81.5167 38.0981C82.5729 39.1499 84.0056 39.7407 85.4994 39.7407H102.09C102.152 39.7407 102.215 39.7284 102.272 39.7045C102.33 39.6806 102.383 39.6456 102.427 39.6015C102.471 39.5573 102.506 39.5049 102.53 39.4473C102.554 39.3896 102.566 39.3279 102.566 39.2655V35.2799C102.566 35.2176 102.554 35.1558 102.53 35.0982C102.506 35.0406 102.471 34.9883 102.427 34.9442C102.383 34.9001 102.33 34.8652 102.272 34.8414C102.214 34.8176 102.152 34.8054 102.09 34.8055H85.3154C85.1858 34.8053 85.0615 34.7539 84.9699 34.6625C84.8783 34.5712 84.8269 34.4474 84.8269 34.3183V22.8503C84.8269 22.7213 84.8783 22.5975 84.97 22.5063C85.0616 22.4151 85.1858 22.3639 85.3154 22.3639H98.1487C98.2753 22.3639 98.3967 22.3138 98.4862 22.2247C98.5757 22.1356 98.626 22.0147 98.626 21.8887V17.9095C98.626 17.7834 98.5757 17.6626 98.4862 17.5734C98.3967 17.4843 98.2753 17.4343 98.1487 17.4343H85.3042C85.2415 17.4343 85.1794 17.422 85.1215 17.3981C85.0636 17.3742 85.011 17.3392 84.9667 17.2951C84.9223 17.2509 84.8872 17.1986 84.8632 17.1409C84.8392 17.0833 84.8269 17.0215 84.8269 16.9591V5.77903C84.8269 5.71663 84.8392 5.65484 84.8632 5.59718C84.8872 5.53953 84.9223 5.48714 84.9667 5.44302C85.011 5.39889 85.0636 5.36389 85.1215 5.34001C85.1794 5.31612 85.2415 5.30383 85.3042 5.30383Z" fill="white"/>
<path d="M171.143 4.11952C171.016 4.27152 170.846 4.34272 170.607 4.34272H169.482C169.476 4.34272 169.471 4.34064 169.467 4.33691C169.463 4.33318 169.461 4.32809 169.461 4.32272V2.62191C169.461 2.6164 169.463 2.61111 169.467 2.60721C169.471 2.60331 169.476 2.60111 169.482 2.60111H170.558C170.664 2.59458 170.77 2.61028 170.87 2.64721C170.969 2.68414 171.06 2.74148 171.136 2.81551C171.271 2.95871 171.34 3.16512 171.34 3.42992V3.43952C171.365 3.68299 171.295 3.92665 171.143 4.11952ZM171.678 4.57312C172.089 4.10032 172.046 3.47712 172.041 3.42752C172.041 2.51551 171.444 1.90271 170.556 1.90271H168.869C168.853 1.90261 168.838 1.90551 168.824 1.91125C168.81 1.91699 168.797 1.92546 168.786 1.93617C168.776 1.94688 168.767 1.95961 168.761 1.97364C168.755 1.98767 168.752 2.00272 168.752 2.01791V7.37792C168.752 7.40869 168.764 7.43819 168.786 7.45995C168.808 7.4817 168.838 7.49392 168.869 7.49392H169.339C169.354 7.49392 169.369 7.49092 169.383 7.48508C169.397 7.47924 169.41 7.47068 169.421 7.4599C169.432 7.44912 169.44 7.43632 169.446 7.42225C169.452 7.40819 169.455 7.39312 169.454 7.37792V5.06592C169.455 5.06054 169.457 5.05545 169.461 5.05173C169.465 5.048 169.47 5.04591 169.475 5.04592H170.122L171.36 7.29232C171.477 7.50352 171.63 7.54752 171.842 7.43152C172.053 7.31552 172.093 7.16912 171.974 6.95152L170.907 5.01952C171.207 4.96111 171.477 4.80246 171.674 4.56992" fill="white"/>
<path d="M170.269 8.42272C169.529 8.42287 168.806 8.20455 168.19 7.79536C167.575 7.38617 167.095 6.80449 166.812 6.12388C166.529 5.44328 166.455 4.69432 166.599 3.97173C166.743 3.24913 167.099 2.58536 167.623 2.06436C168.146 1.54335 168.812 1.18852 169.538 1.04473C170.264 0.900944 171.016 0.974661 171.7 1.25656C172.383 1.53846 172.968 2.01587 173.379 2.62843C173.79 3.24099 174.009 3.96118 174.009 4.69791C174.008 5.68533 173.614 6.63201 172.913 7.33029C172.211 8.02858 171.261 8.42144 170.269 8.42272ZM170.269 0.1651C169.368 0.164942 168.488 0.430719 167.739 0.928818C166.99 1.42692 166.406 2.13496 166.062 2.9634C165.717 3.79184 165.627 4.70347 165.802 5.58298C165.978 6.46248 166.412 7.27037 167.049 7.90445C167.685 8.53854 168.497 8.97034 169.38 9.14524C170.263 9.32015 171.179 9.2303 172.011 8.88706C172.843 8.54383 173.554 7.96262 174.055 7.21695C174.555 6.47128 174.822 5.59464 174.822 4.69791C174.82 3.49619 174.34 2.34411 173.487 1.49437C172.633 0.64462 171.476 0.166582 170.269 0.1651Z" fill="white"/>
</svg>
